<svg xmlns="http://www.w3.org/2000/svg" x="0px" y="0px" width="100" height="100" viewBox="0,0,256,256">
<g transform="translate(25.6,25.6) scale(0.8,0.8)"><g fill="#000000" fill-rule="nonzero" stroke="none" stroke-width="1" stroke-linecap="butt" stroke-linejoin="miter" stroke-miterlimit="10" stroke-dasharray="" stroke-dashoffset="0" font-family="none" font-weight="none" font-size="none" text-anchor="none" style="mix-blend-mode: normal"><g transform="translate(1.85333,-30.93627) scale(5.33333,5.33333)"><path d="M23.697,37.56h1.18c0.84,0 1.631,-0.392 2.139,-1.061l7.485,-9.847l7.485,9.847c0.508,0.668 1.299,1.061 2.139,1.061h1.18l-9.549,-12.56l9.121,-12h-1.18c-0.84,0 -1.631,0.392 -2.139,1.061l-7.058,9.286l-7.059,-9.287c-0.508,-0.668 -1.299,-1.06 -2.139,-1.06h-1.18l9.121,12z"></path><path d="M24,26v-3c0,-6.675 -5.945,-11.961 -12.829,-10.852c-5.359,0.863 -9.171,5.709 -9.171,11.136v0.716v2v0.142c0,6.553 4.777,11.786 10.868,11.858c5.092,0.06 9.389,-3.344 10.707,-7.999h-1.028c-0.62,0 -1.182,0.355 -1.451,0.913c-1.739,3.595 -5.789,5.862 -10.228,4.842c-4.092,-0.941 -6.868,-4.775 -6.868,-8.973v-0.783zM4,23.71c0,-4.708 2.804,-8.557 6.924,-9.478c5.874,-1.312 11.076,3.12 11.076,8.768v1h-18z"></path></g></g><g fill="#333333" fill-rule="nonzero" stroke="none" stroke-width="1" stroke-linecap="butt" stroke-linejoin="miter" stroke-miterlimit="10" stroke-dasharray="" stroke-dashoffset="0" font-family="none" font-weight="none" font-size="none" text-anchor="none" style="mix-blend-mode: normal"><g><path d="M37.20667,237.75333v7.03h-15.41v13h14.69l0.4,-5.44h6.94v12.44h-36v-5.47l4.84,-0.94v-32.65l-4.84,-0.94v-5.5h4.84h31.1v12.47h-7l-0.41,-5.44h-14.56v11.44zM47.95667,264.78333v-5.47l3.15,-0.5l9.19,-11.12l-8.88,-10.69l-3.15,-0.53v-5.5h15.22v5.28l-3.1,0.37l5.13,6.5l5.03,-6.5l-3.16,-0.37v-5.28h15.28v5.5l-3.06,0.53l-8.69,10.69l9.16,11.12l3.19,0.5v5.47h-15.47v-5.25l3.09,-0.37l-5.25,-6.82l-5.34,6.85l2.72,0.34v5.25zM90.32667,237.41333l-4.87,-0.94v-5.5h13.25l0.43,3.94c1,-1.46 2.2,-2.58667 3.6,-3.38c1.39333,-0.79333 3.01667,-1.19 4.87,-1.19v0c4.18667,0 7.43667,1.63667 9.75,4.91c2.31333,3.27333 3.47,7.57667 3.47,12.91v0v0.65c0,5 -1.15667,9.02 -3.47,12.06c-2.31333,3.04667 -5.54333,4.57 -9.69,4.57v0c-1.76667,0 -3.33667,-0.33 -4.71,-0.99c-1.38,-0.65333 -2.56,-1.61667 -3.54,-2.89v0v9.78l4.41,0.94v5.5h-17.91v-5.5l4.41,-0.94zM111.70667,248.81333v-0.65c0,-3.19333 -0.53333,-5.77667 -1.6,-7.75c-1.06,-1.98 -2.68333,-2.97 -4.87,-2.97v0c-1.38,0 -2.55333,0.28 -3.52,0.84c-0.96667,0.56 -1.73333,1.36333 -2.3,2.41v0v14.81c0.56667,0.96 1.33333,1.69 2.3,2.19c0.96667,0.5 2.16,0.75 3.58,0.75v0c2.20667,0 3.82667,-0.86667 4.86,-2.6c1.03333,-1.72667 1.55,-4.07 1.55,-7.03zM125.57667,264.78333v-5.47l4.38,-0.94v-20.96l-4.85,-0.94v-5.5h13.35l0.4,4.94c0.79333,-1.75333 1.81333,-3.12 3.06,-4.1c1.25333,-0.98 2.70333,-1.47 4.35,-1.47v0c0.48,0 0.98333,0.03667 1.51,0.11c0.53333,0.07333 0.97667,0.16333 1.33,0.27v0l-0.97,8.31l-3.75,-0.09c-1.33333,0 -2.43667,0.26 -3.31,0.78c-0.87333,0.52 -1.54,1.26 -2,2.22v0v16.43l4.38,0.94v5.47zM167.41667,265.44333v0c-4.87333,0 -8.76667,-1.56333 -11.68,-4.69c-2.92,-3.12667 -4.38,-7.09667 -4.38,-11.91v0v-1.25c0,-5.02 1.38,-9.15333 4.14,-12.4c2.76,-3.25333 6.46333,-4.87 11.11,-4.85v0c4.56667,0 8.11,1.37667 10.63,4.13c2.52,2.74667 3.78,6.46333 3.78,11.15v0v4.97h-20.19l-0.06,0.19c0.16667,2.22667 0.91,4.06 2.23,5.5c1.32667,1.44 3.12333,2.16 5.39,2.16v0c2.02,0 3.69667,-0.20333 5.03,-0.61c1.33333,-0.40667 2.79333,-1.04667 4.38,-1.92v0l2.47,5.62c-1.4,1.10667 -3.20667,2.03333 -5.42,2.78c-2.22,0.75333 -4.69667,1.13 -7.43,1.13zM166.60667,237.37333v0c-1.68667,0 -3.02,0.64667 -4,1.94c-0.98,1.29333 -1.58333,2.99333 -1.81,5.1v0l0.09,0.15h11.19v-0.81c0,-1.94 -0.45333,-3.48667 -1.36,-4.64c-0.90667,-1.16 -2.27667,-1.74 -4.11,-1.74zM212.82667,234.19333l0.09,8.4h-6.12l-0.97,-4.22c-0.62667,-0.5 -1.41333,-0.91667 -2.36,-1.25c-0.94667,-0.33333 -1.99333,-0.5 -3.14,-0.5v0c-1.60667,0 -2.87667,0.36 -3.81,1.08c-0.94,0.72 -1.41,1.62333 -1.41,2.71v0c0,1.02 0.45,1.86667 1.35,2.54c0.89333,0.68 2.68333,1.28 5.37,1.8v0c4.18667,0.83333 7.29,2.05667 9.31,3.67c2.02,1.61333 3.03,3.83667 3.03,6.67v0c0,3.04667 -1.30667,5.53333 -3.92,7.46c-2.61333,1.92667 -6.05667,2.89 -10.33,2.89v0c-2.6,0 -4.99,-0.38 -7.17,-1.14c-2.17333,-0.76 -4.10333,-1.85 -5.79,-3.27v0l-0.1,-7.59h6.38l1.25,4.4c0.54,0.46 1.28,0.8 2.22,1.02c0.93333,0.22 1.91,0.33 2.93,0.33v0c1.85333,0 3.26667,-0.33333 4.24,-1c0.96667,-0.66667 1.45,-1.57333 1.45,-2.72v0c0,-1 -0.49,-1.86667 -1.47,-2.6c-0.98,-0.72667 -2.78,-1.37 -5.4,-1.93v0c-3.98,-0.81333 -6.98667,-2.01667 -9.02,-3.61c-2.03333,-1.59333 -3.05,-3.76667 -3.05,-6.52v0c0,-2.83333 1.16667,-5.27667 3.5,-7.33c2.33333,-2.04667 5.65667,-3.07 9.97,-3.07v0c2.62667,0 5.11,0.35333 7.45,1.06c2.34667,0.70667 4.18667,1.61333 5.52,2.72zM245.76667,234.19333l0.09,8.4h-6.12l-0.97,-4.22c-0.62667,-0.5 -1.41333,-0.91667 -2.36,-1.25c-0.94667,-0.33333 -1.99333,-0.5 -3.14,-0.5v0c-1.60667,0 -2.87667,0.36 -3.81,1.08c-0.94,0.72 -1.41,1.62333 -1.41,2.71v0c0,1.02 0.44667,1.86667 1.34,2.54c0.9,0.68 2.69333,1.28 5.38,1.8v0c4.18667,0.83333 7.29,2.05667 9.31,3.67c2.02,1.61333 3.03,3.83667 3.03,6.67v0c0,3.04667 -1.30667,5.53333 -3.92,7.46c-2.61333,1.92667 -6.05667,2.89 -10.33,2.89v0c-2.6,0 -4.99,-0.38 -7.17,-1.14c-2.18,-0.76 -4.11333,-1.85 -5.8,-3.27v0l-0.09,-7.59h6.37l1.25,4.4c0.54667,0.46 1.28667,0.8 2.22,1.02c0.94,0.22 1.92,0.33 2.94,0.33v0c1.85333,0 3.26333,-0.33333 4.23,-1c0.97333,-0.66667 1.46,-1.57333 1.46,-2.72v0c0,-1 -0.49,-1.86667 -1.47,-2.6c-0.98,-0.72667 -2.78333,-1.37 -5.41,-1.93v0c-3.98,-0.81333 -6.98333,-2.01667 -9.01,-3.61c-2.03333,-1.59333 -3.05,-3.76667 -3.05,-6.52v0c0,-2.83333 1.16667,-5.27667 3.5,-7.33c2.33333,-2.04667 5.65667,-3.07 9.97,-3.07v0c2.62667,0 5.11,0.35333 7.45,1.06c2.34667,0.70667 4.18667,1.61333 5.52,2.72z"></path></g></g></g>
</svg>
