<svg xmlns="http://www.w3.org/2000/svg" x="0px" y="0px" width="100" height="100" viewBox="0,0,256,256">
<g transform="translate(25.6,25.6) scale(0.8,0.8)"><g fill="#333333" fill-rule="nonzero" stroke="none" stroke-width="1" stroke-linecap="butt" stroke-linejoin="miter" stroke-miterlimit="10" stroke-dasharray="" stroke-dashoffset="0" font-family="none" font-weight="none" font-size="none" text-anchor="none" style="mix-blend-mode: normal"><g transform="translate(1.85333,-30.93627) scale(5.33333,5.33333)"><path d="M23.697,37.56h1.18c0.84,0 1.631,-0.392 2.139,-1.061l7.485,-9.847l7.485,9.847c0.508,0.668 1.299,1.061 2.139,1.061h1.18l-9.549,-12.56l9.121,-12h-1.18c-0.84,0 -1.631,0.392 -2.139,1.061l-7.058,9.286l-7.059,-9.287c-0.508,-0.668 -1.299,-1.06 -2.139,-1.06h-1.18l9.121,12z"></path><path d="M24,26v-3c0,-6.675 -5.945,-11.961 -12.829,-10.852c-5.359,0.863 -9.171,5.709 -9.171,11.136v0.716v2v0.142c0,6.553 4.777,11.786 10.868,11.858c5.092,0.06 9.389,-3.344 10.707,-7.999h-1.028c-0.62,0 -1.182,0.355 -1.451,0.913c-1.739,3.595 -5.789,5.862 -10.228,4.842c-4.092,-0.941 -6.868,-4.775 -6.868,-8.973v-0.783zM4,23.71c0,-4.708 2.804,-8.557 6.924,-9.478c5.874,-1.312 11.076,3.12 11.076,8.768v1h-18z"></path></g></g><g fill="#333333" fill-rule="nonzero" stroke="none" stroke-width="1" stroke-linecap="butt" stroke-linejoin="miter" stroke-miterlimit="10" stroke-dasharray="" stroke-dashoffset="0" font-family="none" font-weight="none" font-size="none" text-anchor="none" style="mix-blend-mode: normal"><g><path d="M17.635,248.34167v5.86h-12.84v10.83h12.24l0.34,-4.53h5.78v10.36h-30v-4.55l4.03,-0.79v-27.21l-4.03,-0.78v-4.58h4.03h25.92v10.39h-5.84l-0.34,-4.53h-12.13v9.53zM26.595,270.86167v-4.55l2.63,-0.42l7.65,-9.27l-7.39,-8.91l-2.63,-0.44v-4.58h12.68v4.4l-2.58,0.31l4.27,5.42l4.19,-5.42l-2.63,-0.31v-4.4h12.74v4.58l-2.55,0.44l-7.24,8.91l7.63,9.27l2.65,0.42v4.55h-12.89v-4.37l2.58,-0.31l-4.37,-5.68l-4.46,5.7l2.27,0.29v4.37zM61.905,248.05167l-4.06,-0.78v-4.58h11.04l0.36,3.28c0.83333,-1.22 1.83333,-2.16 3,-2.82c1.16,-0.65333 2.51333,-0.98 4.06,-0.98v0c3.48667,0 6.19333,1.36 8.12,4.08c1.93333,2.72667 2.9,6.31333 2.9,10.76v0v0.55c0,4.16667 -0.96667,7.51667 -2.9,10.05c-1.92667,2.53333 -4.61667,3.8 -8.07,3.8v0c-1.47333,0 -2.78333,-0.27333 -3.93,-0.82c-1.14667,-0.54667 -2.12667,-1.35 -2.94,-2.41v0v8.15l3.67,0.78v4.59h-14.92v-4.59l3.67,-0.78zM79.715,257.56167v-0.55c0,-2.66 -0.44333,-4.81333 -1.33,-6.46c-0.88667,-1.64667 -2.24,-2.47 -4.06,-2.47v0c-1.14667,0 -2.12333,0.23333 -2.93,0.7c-0.80667,0.46667 -1.44333,1.13667 -1.91,2.01v0v12.34c0.46667,0.8 1.10333,1.40667 1.91,1.82c0.80667,0.42 1.8,0.63 2.98,0.63v0c1.84,0 3.19,-0.72 4.05,-2.16c0.86,-1.44667 1.29,-3.4 1.29,-5.86zM91.275,270.86167v-4.55l3.65,-0.79v-17.47l-4.04,-0.78v-4.58h11.12l0.34,4.11c0.66,-1.46 1.51,-2.59667 2.55,-3.41c1.04667,-0.81333 2.25333,-1.22 3.62,-1.22v0c0.4,0 0.82333,0.03 1.27,0.09c0.44,0.06 0.80667,0.13333 1.1,0.22v0l-0.8,6.92l-3.13,-0.07c-1.11333,0 -2.03333,0.21667 -2.76,0.65c-0.72667,0.43333 -1.28333,1.05 -1.67,1.85v0v13.69l3.65,0.79v4.55zM126.145,271.41167v0c-4.06,0 -7.30667,-1.30333 -9.74,-3.91c-2.42667,-2.6 -3.64,-5.90667 -3.64,-9.92v0v-1.04c0,-4.18667 1.15,-7.63333 3.45,-10.34c2.3,-2.70667 5.38667,-4.05 9.26,-4.03v0c3.8,0 6.75,1.14333 8.85,3.43c2.1,2.29333 3.15,5.39333 3.15,9.3v0v4.14h-16.82l-0.05,0.16c0.13333,1.85333 0.75333,3.38 1.86,4.58c1.1,1.2 2.59667,1.8 4.49,1.8v0c1.68667,0 3.08333,-0.17 4.19,-0.51c1.11333,-0.34 2.33,-0.87333 3.65,-1.6v0l2.06,4.68c-1.16667,0.92667 -2.67333,1.7 -4.52,2.32c-1.85333,0.62667 -3.91667,0.94 -6.19,0.94zM125.475,248.02167v0c-1.40667,0 -2.52,0.54 -3.34,1.62c-0.81333,1.07333 -1.31667,2.48667 -1.51,4.24v0l0.08,0.13h9.32v-0.67c0,-1.61333 -0.37667,-2.90333 -1.13,-3.87c-0.75333,-0.96667 -1.89333,-1.45 -3.42,-1.45zM163.985,245.37167l0.08,7h-5.1l-0.81,-3.51c-0.52,-0.42 -1.17667,-0.76667 -1.97,-1.04c-0.78667,-0.28 -1.66,-0.42 -2.62,-0.42v0c-1.33333,0 -2.39,0.3 -3.17,0.9c-0.78,0.6 -1.17,1.35 -1.17,2.25v0c0,0.85333 0.37333,1.56 1.12,2.12c0.74667,0.56667 2.23667,1.06667 4.47,1.5v0c3.49333,0.69333 6.08333,1.71333 7.77,3.06c1.68,1.34667 2.52,3.2 2.52,5.56v0c0,2.53333 -1.09,4.60333 -3.27,6.21c-2.18,1.60667 -5.04667,2.41 -8.6,2.41v0c-2.17333,0 -4.16667,-0.31667 -5.98,-0.95c-1.81333,-0.63333 -3.42333,-1.54 -4.83,-2.72v0l-0.08,-6.33h5.31l1.05,3.67c0.44667,0.38 1.06,0.66333 1.84,0.85c0.78667,0.18 1.60333,0.27 2.45,0.27v0c1.54667,0 2.72333,-0.27667 3.53,-0.83c0.80667,-0.55333 1.21,-1.31 1.21,-2.27v0c0,-0.83333 -0.40667,-1.55333 -1.22,-2.16c-0.82,-0.60667 -2.32333,-1.14333 -4.51,-1.61v0c-3.31333,-0.68 -5.81667,-1.68333 -7.51,-3.01c-1.69333,-1.32667 -2.54,-3.13667 -2.54,-5.43v0c0,-2.36 0.97333,-4.39667 2.92,-6.11c1.94,-1.70667 4.70667,-2.56 8.3,-2.56v0c2.19333,0 4.26667,0.29333 6.22,0.88c1.94667,0.59333 3.47667,1.35 4.59,2.27zM191.435,245.37167l0.08,7h-5.11l-0.8,-3.51c-0.52667,-0.42 -1.18333,-0.76667 -1.97,-1.04c-0.78667,-0.28 -1.66,-0.42 -2.62,-0.42v0c-1.33333,0 -2.39,0.3 -3.17,0.9c-0.78667,0.6 -1.18,1.35 -1.18,2.25v0c0,0.85333 0.37333,1.56 1.12,2.12c0.74667,0.56667 2.24,1.06667 4.48,1.5v0c3.49333,0.69333 6.08,1.71333 7.76,3.06c1.68667,1.34667 2.53,3.2 2.53,5.56v0c0,2.53333 -1.09,4.60333 -3.27,6.21c-2.18,1.60667 -5.05,2.41 -8.61,2.41v0c-2.16667,0 -4.15667,-0.31667 -5.97,-0.95c-1.81333,-0.63333 -3.42333,-1.54 -4.83,-2.72v0l-0.08,-6.33h5.31l1.04,3.67c0.45333,0.38 1.07,0.66333 1.85,0.85c0.78,0.18 1.59667,0.27 2.45,0.27v0c1.54667,0 2.72333,-0.27667 3.53,-0.83c0.80667,-0.55333 1.21,-1.31 1.21,-2.27v0c0,-0.83333 -0.40667,-1.55333 -1.22,-2.16c-0.82,-0.60667 -2.32333,-1.14333 -4.51,-1.61v0c-3.31333,-0.68 -5.81667,-1.68333 -7.51,-3.01c-1.69333,-1.32667 -2.54,-3.13667 -2.54,-5.43v0c0,-2.36 0.97,-4.39667 2.91,-6.11c1.94667,-1.70667 4.71667,-2.56 8.31,-2.56v0c2.18667,0 4.25667,0.29333 6.21,0.88c1.95333,0.59333 3.48667,1.35 4.6,2.27zM233.675,232.95167h4.06v4.58l-4.06,0.78v21.17c0,3.66667 -1.19333,6.57 -3.58,8.71c-2.38667,2.14667 -5.40333,3.22 -9.05,3.22v0c-3.96,0 -7.09333,-0.96333 -9.4,-2.89c-2.31333,-1.92667 -3.42667,-4.76667 -3.34,-8.52v0l0.06,-0.15h7.39c0,1.99333 0.47667,3.44667 1.43,4.36c0.96,0.91333 2.24667,1.37 3.86,1.37v0c1.40667,0 2.6,-0.54333 3.58,-1.63c0.98,-1.08667 1.47,-2.57667 1.47,-4.47v0v-21.17l-4.06,-0.78v-4.58zM268.705,237.30167v7.76h-5.71l-0.99,-5.21c-0.66,-0.42 -1.62333,-0.78667 -2.89,-1.1c-1.26667,-0.30667 -2.61,-0.46 -4.03,-0.46v0c-2.08667,0 -3.7,0.43667 -4.84,1.31c-1.13333,0.88 -1.7,2.01333 -1.7,3.4v0c0,1.28667 0.59333,2.34 1.78,3.16c1.19333,0.82667 3.24667,1.7 6.16,2.62v0c4.18667,1.16 7.36,2.69667 9.52,4.61c2.16,1.90667 3.24,4.41667 3.24,7.53v0c0,3.24667 -1.28333,5.80667 -3.85,7.68c-2.57333,1.87333 -5.96,2.81 -10.16,2.81v0c-3,0 -5.71333,-0.47667 -8.14,-1.43c-2.42,-0.95333 -4.43667,-2.27333 -6.05,-3.96v0v-7.92h5.88l0.81,5.39c0.76667,0.62667 1.80333,1.14333 3.11,1.55c1.31333,0.40667 2.77667,0.61 4.39,0.61v0c2.08667,0 3.67,-0.42333 4.75,-1.27c1.08667,-0.85333 1.63,-1.99 1.63,-3.41v0c0,-1.46 -0.51667,-2.63333 -1.55,-3.52c-1.03333,-0.88667 -2.84333,-1.72 -5.43,-2.5v0c-4.49333,-1.3 -7.89667,-2.84333 -10.21,-4.63c-2.30667,-1.79333 -3.46,-4.24333 -3.46,-7.35v0c0,-3.07333 1.30333,-5.58667 3.91,-7.54c2.6,-1.95333 5.87,-2.95333 9.81,-3v0c2.92,0 5.57667,0.44 7.97,1.32c2.4,0.88667 4.41667,2.07 6.05,3.55z"></path></g></g></g>
</svg>
