<svg xmlns="http://www.w3.org/2000/svg" x="0px" y="0px" height="40" viewBox="0,0,256,256">
<g transform="translate(12.8,12.8) scale(0.9,0.9)"><g fill="none" fill-rule="nonzero" stroke="none" stroke-width="1" stroke-linecap="butt" stroke-linejoin="miter" stroke-miterlimit="10" stroke-dasharray="" stroke-dashoffset="0" font-family="none" font-weight="none" font-size="none" text-anchor="none" style="mix-blend-mode: normal"><g transform="translate(0,-25.6) scale(5.33333,5.33333)"><path d="M21.906,31.772l2.601,-2.724l2.6,2.724v11.228h-5.201z" fill="#546e7a"></path><path d="M17.737,29.058l3.705,-0.675l0.503,3.732l-6.6,9.084l-4.207,-3.058z" fill="#f50057"></path><path d="M15.962,24.409l3.393,1.632l-1.786,3.315l-10.679,3.469l-1.607,-4.946z" fill="#d500f9"></path><path d="M17.256,19.607l1.786,3.315l-3.393,1.632l-10.679,-3.47l1.607,-4.947z" fill="#29b6f6"></path><path d="M21.126,16.482l-0.503,3.732l-3.705,-0.675l-6.6,-9.084l4.208,-3.057z" fill="#00e5ff"></path><path d="M26.094,16.228l-2.601,2.724l-2.6,-2.724v-11.228h5.201z" fill="#546e7a"></path><path d="M30.262,18.943l-3.704,0.675l-0.503,-3.732l6.599,-9.084l4.208,3.057z" fill="#f50057"></path><path d="M32.039,23.59l-3.394,-1.632l1.786,-3.315l10.679,-3.469l1.607,4.946z" fill="#d500f9"></path><path d="M30.744,28.393l-1.786,-3.315l3.393,-1.631l10.679,3.469l-1.607,4.947z" fill="#29b6f6"></path><path d="M26.874,31.518l0.504,-3.732l3.704,0.675l6.6,9.084l-4.208,3.057z" fill="#00e5ff"></path></g></g><g fill="#222222" fill-rule="nonzero" stroke="none" stroke-width="1" stroke-linecap="butt" stroke-linejoin="miter" stroke-miterlimit="10" stroke-dasharray="" stroke-dashoffset="0" font-family="none" font-weight="none" font-size="none" text-anchor="none" style="mix-blend-mode: normal"><g><path d="M92.68928,217.98667h4.88v5.5l-4.88,0.94v25.4c0,4.4 -1.43333,7.88667 -4.3,10.46c-2.86,2.57333 -6.47667,3.86 -10.85,3.86v0c-4.75333,0 -8.51667,-1.15667 -11.29,-3.47c-2.76667,-2.31333 -4.1,-5.72 -4,-10.22v0l0.07,-0.19h8.87c0,2.4 0.57333,4.14667 1.72,5.24c1.14667,1.09333 2.69,1.64 4.63,1.64v0c1.68667,0 3.11667,-0.65333 4.29,-1.96c1.18,-1.3 1.77,-3.08667 1.77,-5.36v0v-25.4l-4.88,-0.94v-5.5zM159.09928,217.98667v5.5l-3.75,0.47l-9.22,39.53h-8.47l-8.34,-30.03h-0.19l-8.34,30.03h-8.47l-9.28,-39.53l-3.72,-0.47v-5.5h16.75v5.5l-4.16,0.72l5.22,24.94l0.19,0.03l8.53,-31.19h6.72l8.59,31.19l0.19,-0.03l5.19,-24.94l-4.16,-0.72v-5.5zM161.71928,217.98667h40.57v12.13h-7l-0.38,-5.1h-8.37v32.06l4.87,0.94v5.47h-18.87v-5.47l4.87,-0.94v-32.06h-8.34l-0.38,5.1h-6.97z"></path></g></g></g>
</svg>
