<svg xmlns="http://www.w3.org/2000/svg" x="0px" y="0px" width="100" height="100" viewBox="0,0,256,256">
<g transform="translate(25.6,25.6) scale(0.8,0.8)"><g fill="#000000" fill-rule="nonzero" stroke="none" stroke-width="1" stroke-linecap="butt" stroke-linejoin="miter" stroke-miterlimit="10" stroke-dasharray="" stroke-dashoffset="0" font-family="none" font-weight="none" font-size="none" text-anchor="none" style="mix-blend-mode: normal"><g transform="translate(0,-25.6) scale(5.33333,5.33333)"><path d="M18.974,31.5c0,0.828 -0.671,1.5 -1.5,1.5c-0.829,0 -1.5,-0.672 -1.5,-1.5v-14c0,-0.653 0.423,-1.231 1.045,-1.43c0.625,-0.198 1.302,0.03 1.679,0.563l16.777,23.704c5.142,-3.628 8.525,-9.602 8.525,-16.337c0,-11 -9,-20 -20,-20c-11,0 -20,9 -20,20c0,11 9,20 20,20c3.192,0 6.206,-0.777 8.89,-2.122l-13.916,-19.662zM28.974,16.5c0,-0.828 0.671,-1.5 1.5,-1.5c0.829,0 1.5,0.672 1.5,1.5v13.84l-3,-4.227z"></path></g></g><g fill="#e7e5e5" fill-rule="nonzero" stroke="none" stroke-width="1" stroke-linecap="butt" stroke-linejoin="miter" stroke-miterlimit="10" stroke-dasharray="" stroke-dashoffset="0" font-family="none" font-weight="none" font-size="none" text-anchor="none" style="mix-blend-mode: normal"><g><path d="M59.205,233.98667h4.87v5.5l-4.87,0.94v39.06h-9.1l-18.37,-30.62l-0.19,0.03v24.18l4.87,0.94v5.47h-18.84v-5.47l4.84,-0.94v-32.65l-4.84,-0.94v-5.5h4.84h9.13l18.37,30.63l0.19,-0.04v-24.15l-4.87,-0.94v-5.5zM83.415,280.14667v0c-4.87333,0 -8.76667,-1.56333 -11.68,-4.69c-2.92,-3.12667 -4.38,-7.09667 -4.38,-11.91v0v-1.25c0,-5.02 1.38,-9.15333 4.14,-12.4c2.76,-3.25333 6.46333,-4.87 11.11,-4.85v0c4.56667,0 8.11,1.37667 10.63,4.13c2.52,2.74667 3.78,6.46333 3.78,11.15v0v4.97h-20.19l-0.06,0.19c0.16667,2.22667 0.91,4.06 2.23,5.5c1.32667,1.44 3.12333,2.16 5.39,2.16v0c2.02,0 3.69667,-0.20333 5.03,-0.61c1.33333,-0.40667 2.79333,-1.04667 4.38,-1.92v0l2.47,5.62c-1.4,1.10667 -3.20667,2.03333 -5.42,2.78c-2.22,0.75333 -4.69667,1.13 -7.43,1.13zM82.605,252.07667v0c-1.68667,0 -3.02,0.64667 -4,1.94c-0.98,1.29333 -1.58333,2.99333 -1.81,5.1v0l0.09,0.15h11.19v-0.81c0,-1.94 -0.45333,-3.48667 -1.36,-4.64c-0.90667,-1.16 -2.27667,-1.74 -4.11,-1.74zM100.355,279.48667v-5.47l3.16,-0.5l9.19,-11.12l-8.88,-10.69l-3.16,-0.53v-5.5h15.22v5.28l-3.09,0.37l5.12,6.5l5.04,-6.5l-3.16,-0.37v-5.28h15.28v5.5l-3.06,0.53l-8.69,10.69l9.16,11.12l3.18,0.5v5.47h-15.46v-5.25l3.09,-0.37l-5.25,-6.82l-5.34,6.85l2.71,0.34v5.25zM142.915,237.39667h9.1v8.28h5.94v6.4h-5.94v17.22c0,1.31333 0.27,2.25333 0.81,2.82c0.54,0.56 1.27,0.84 2.19,0.84v0c0.62667,0 1.17333,-0.02667 1.64,-0.08c0.46667,-0.05333 0.99333,-0.14 1.58,-0.26v0l0.78,6.59c-1.02,0.31333 -2.03,0.54667 -3.03,0.7c-1,0.16 -2.08333,0.24 -3.25,0.24v0c-3.14667,0 -5.57,-0.86667 -7.27,-2.6c-1.7,-1.72667 -2.55,-4.46667 -2.55,-8.22v0v-17.25h-4.96v-6.4h4.96zM173.575,271.48667v8h-9.09v-8zM208.295,233.98667h4.87v5.5l-4.87,0.94v25.4c0,4.4 -1.43333,7.88667 -4.3,10.46c-2.86,2.57333 -6.48,3.86 -10.86,3.86v0c-4.74667,0 -8.50667,-1.15667 -11.28,-3.47c-2.76667,-2.31333 -4.1,-5.72 -4,-10.22v0l0.06,-0.19h8.88c0,2.4 0.57333,4.14667 1.72,5.24c1.14667,1.09333 2.68667,1.64 4.62,1.64v0c1.68667,0 3.12,-0.65333 4.3,-1.96c1.18,-1.3 1.77,-3.08667 1.77,-5.36v0v-25.4l-4.88,-0.94v-5.5zM243.485,248.89667l0.09,8.4h-6.12l-0.97,-4.22c-0.62667,-0.5 -1.41333,-0.91667 -2.36,-1.25c-0.94667,-0.33333 -1.99333,-0.5 -3.14,-0.5v0c-1.60667,0 -2.88,0.36 -3.82,1.08c-0.93333,0.72 -1.4,1.62333 -1.4,2.71v0c0,1.02 0.44667,1.86667 1.34,2.54c0.9,0.68 2.69333,1.28 5.38,1.8v0c4.18667,0.83333 7.29,2.05667 9.31,3.67c2.02,1.61333 3.03,3.83667 3.03,6.67v0c0,3.04667 -1.30667,5.53333 -3.92,7.46c-2.61333,1.92667 -6.05667,2.89 -10.33,2.89v0c-2.60667,0 -4.99667,-0.38 -7.17,-1.14c-2.18,-0.76 -4.11333,-1.85 -5.8,-3.27v0l-0.09,-7.59h6.37l1.25,4.4c0.54667,0.46 1.28667,0.8 2.22,1.02c0.94,0.22 1.92,0.33 2.94,0.33v0c1.85333,0 3.26333,-0.33333 4.23,-1c0.97333,-0.66667 1.46,-1.57333 1.46,-2.72v0c0,-1 -0.49,-1.86667 -1.47,-2.6c-0.98,-0.72667 -2.78333,-1.37 -5.41,-1.93v0c-3.98,-0.81333 -6.98333,-2.01667 -9.01,-3.61c-2.03333,-1.59333 -3.05,-3.76667 -3.05,-6.52v0c0,-2.83333 1.16667,-5.27667 3.5,-7.33c2.33333,-2.04667 5.65667,-3.07 9.97,-3.07v0c2.62667,0 5.11,0.35333 7.45,1.06c2.34667,0.70667 4.18667,1.61333 5.52,2.72z"></path></g></g></g>
</svg>
