<svg xmlns="http://www.w3.org/2000/svg" x="0px" y="0px" width="100" height="100" viewBox="0,0,256,256">
<g transform="translate(10.24,10.24) scale(0.92,0.92)"><g fill="#000000" fill-rule="nonzero" stroke="none" stroke-width="1" stroke-linecap="butt" stroke-linejoin="miter" stroke-miterlimit="10" stroke-dasharray="" stroke-dashoffset="0" font-family="none" font-weight="none" font-size="none" text-anchor="none" style="mix-blend-mode: normal"><g transform="translate(0,-25.6) scale(5.33333,5.33333)"><path d="M18.974,31.5c0,0.828 -0.671,1.5 -1.5,1.5c-0.829,0 -1.5,-0.672 -1.5,-1.5v-14c0,-0.653 0.423,-1.231 1.045,-1.43c0.625,-0.198 1.302,0.03 1.679,0.563l16.777,23.704c5.142,-3.628 8.525,-9.602 8.525,-16.337c0,-11 -9,-20 -20,-20c-11,0 -20,9 -20,20c0,11 9,20 20,20c3.192,0 6.206,-0.777 8.89,-2.122l-13.916,-19.662zM28.974,16.5c0,-0.828 0.671,-1.5 1.5,-1.5c0.829,0 1.5,0.672 1.5,1.5v13.84l-3,-4.227z"></path></g></g><g fill="#e7e5e5" fill-rule="nonzero" stroke="none" stroke-width="1" stroke-linecap="butt" stroke-linejoin="miter" stroke-miterlimit="10" stroke-dasharray="" stroke-dashoffset="0" font-family="none" font-weight="none" font-size="none" text-anchor="none" style="mix-blend-mode: normal"><g><path d="M65.2,215.645h4.47v5.04l-4.47,0.86v35.81h-8.34l-16.84,-28.08l-0.17,0.03v22.17l4.47,0.86v5.02h-17.28v-5.02l4.44,-0.86v-29.93l-4.44,-0.86v-5.04h4.44h8.37l16.84,28.07l0.17,-0.03v-22.14l-4.46,-0.86v-5.04zM87.4,257.955v0c-4.46667,0 -8.03667,-1.43333 -10.71,-4.3c-2.67333,-2.86667 -4.01,-6.50333 -4.01,-10.91v0v-1.15c0,-4.6 1.26333,-8.39 3.79,-11.37c2.53333,-2.98 5.93,-4.46 10.19,-4.44v0c4.18,0 7.42667,1.26 9.74,3.78c2.30667,2.52 3.46,5.93 3.46,10.23v0v4.55h-18.5l-0.06,0.17c0.15333,2.04667 0.83667,3.73 2.05,5.05c1.21333,1.31333 2.86,1.97 4.94,1.97v0c1.85333,0 3.39,-0.18667 4.61,-0.56c1.22,-0.37333 2.55667,-0.96 4.01,-1.76v0l2.26,5.16c-1.27333,1.01333 -2.93,1.86333 -4.97,2.55c-2.03333,0.68667 -4.3,1.03 -6.8,1.03zM86.66,232.225v0c-1.54667,0 -2.77,0.59333 -3.67,1.78c-0.9,1.18667 -1.45333,2.74333 -1.66,4.67v0l0.08,0.14h10.26v-0.74c0,-1.78 -0.41667,-3.2 -1.25,-4.26c-0.82667,-1.06 -2.08,-1.59 -3.76,-1.59zM102.93,257.355v-5.02l2.89,-0.45l8.42,-10.2l-8.13,-9.8l-2.9,-0.49v-5.04h13.95v4.84l-2.83,0.35l4.7,5.96l4.61,-5.96l-2.9,-0.35v-4.84h14.01v5.04l-2.8,0.49l-7.97,9.8l8.39,10.2l2.93,0.45v5.02h-14.18v-4.82l2.83,-0.34l-4.81,-6.24l-4.9,6.27l2.49,0.31v4.82zM141.94,218.765h8.34v7.59h5.44v5.87h-5.44v15.79c0,1.2 0.24667,2.06 0.74,2.58c0.5,0.51333 1.17,0.77 2.01,0.77v0c0.57333,0 1.07333,-0.02333 1.5,-0.07c0.43333,-0.04667 0.91667,-0.13 1.45,-0.25v0l0.72,6.05c-0.94,0.28667 -1.86667,0.5 -2.78,0.64c-0.92,0.14667 -1.91333,0.22 -2.98,0.22v0c-2.88667,0 -5.10667,-0.79333 -6.66,-2.38c-1.56,-1.58667 -2.34,-4.09667 -2.34,-7.53v0v-15.82h-4.55v-5.87h4.55zM170.04,250.015v7.34h-8.33v-7.34zM201.87,215.645h4.47v5.04l-4.47,0.86v23.29c0,4.02667 -1.31333,7.22 -3.94,9.58c-2.62667,2.36 -5.94333,3.54 -9.95,3.54v0c-4.35333,0 -7.8,-1.06 -10.34,-3.18c-2.54,-2.12 -3.76333,-5.24333 -3.67,-9.37v0l0.06,-0.17h8.13c0,2.19333 0.52667,3.79333 1.58,4.8c1.04667,1 2.46,1.5 4.24,1.5v0c1.54667,0 2.86,-0.59667 3.94,-1.79c1.07333,-1.19333 1.61,-2.83 1.61,-4.91v0v-23.29l-4.46,-0.86v-5.04zM234.12,229.305l0.09,7.71h-5.61l-0.89,-3.87c-0.57333,-0.46 -1.29333,-0.84 -2.16,-1.14c-0.87333,-0.30667 -1.83333,-0.46 -2.88,-0.46v0c-1.47333,0 -2.64,0.33 -3.5,0.99c-0.86,0.65333 -1.29,1.47667 -1.29,2.47v0c0,0.94 0.41,1.72 1.23,2.34c0.82667,0.62 2.47,1.16667 4.93,1.64v0c3.84,0.76667 6.68667,1.89 8.54,3.37c1.85333,1.48 2.78,3.52 2.78,6.12v0c0,2.78667 -1.2,5.06333 -3.6,6.83c-2.39333,1.76667 -5.55,2.65 -9.47,2.65v0c-2.38667,0 -4.57667,-0.35 -6.57,-1.05c-1.99333,-0.69333 -3.76333,-1.69 -5.31,-2.99v0l-0.09,-6.96h5.84l1.15,4.04c0.49333,0.42 1.17,0.73 2.03,0.93c0.86,0.2 1.76,0.3 2.7,0.3v0c1.7,0 2.99333,-0.30667 3.88,-0.92c0.88667,-0.60667 1.33,-1.43667 1.33,-2.49v0c0,-0.91333 -0.45,-1.70667 -1.35,-2.38c-0.89333,-0.66667 -2.54333,-1.25667 -4.95,-1.77v0c-3.64667,-0.74667 -6.40333,-1.85 -8.27,-3.31c-1.86,-1.46 -2.79,-3.45 -2.79,-5.97v0c0,-2.6 1.07,-4.84 3.21,-6.72c2.14,-1.88 5.18667,-2.82 9.14,-2.82v0c2.40667,0 4.68333,0.32333 6.83,0.97c2.14667,0.64667 3.83,1.47667 5.05,2.49z"></path></g></g></g>
</svg>
