<svg xmlns="http://www.w3.org/2000/svg" x="0px" y="0px" width="100" height="100" viewBox="0,0,256,256">
<g transform="translate(25.6,25.6) scale(0.8,0.8)"><g fill="#4db6ac" fill-rule="nonzero" stroke="none" stroke-width="1" stroke-linecap="butt" stroke-linejoin="miter" stroke-miterlimit="10" stroke-dasharray="" stroke-dashoffset="0" font-family="none" font-weight="none" font-size="none" text-anchor="none" style="mix-blend-mode: normal"><g transform="translate(-2.99167,-22.93356) scale(5.33333,5.33333)"><path d="M44.284,36.035l-16.597,-34.606c-0.855,-1.783 -3.337,-1.93 -4.397,-0.26l-18.404,29.008c-0.397,0.625 -0.385,1.426 0.029,2.04l9.271,13.738c0.575,0.852 1.634,1.237 2.623,0.953l25.942,-7.458c1.457,-0.419 2.188,-2.048 1.533,-3.415zM40.618,37.279l-21.818,6.109c-0.505,0.142 -0.98,-0.305 -0.87,-0.818l7.735,-36.097c0.139,-0.65 1.023,-0.755 1.311,-0.157l14.265,29.621c0.248,0.544 -0.047,1.181 -0.623,1.342z"></path></g></g><g fill="#4db6ac" fill-rule="nonzero" stroke="none" stroke-width="1" stroke-linecap="butt" stroke-linejoin="miter" stroke-miterlimit="10" stroke-dasharray="" stroke-dashoffset="0" font-family="none" font-weight="none" font-size="none" text-anchor="none" style="mix-blend-mode: normal"><g><path d="M29.18,235.61167h16.82c5.20667,0 9.31333,1.34 12.32,4.02c3.01333,2.67333 4.52,6.17667 4.52,10.51v0c0,4.35333 -1.50667,7.85333 -4.52,10.5c-3.00667,2.64667 -7.11333,3.97 -12.32,3.97v0h-7.69v10.09l4.87,0.94v5.47h-18.84v-5.47l4.84,-0.94v-32.65l-4.84,-0.94v-5.5zM38.31,242.64167v14.94h7.69c2.54,0 4.46,-0.69333 5.76,-2.08c1.30667,-1.38667 1.96,-3.15333 1.96,-5.3v0c0,-2.18667 -0.65333,-3.99333 -1.96,-5.42c-1.3,-1.42667 -3.22,-2.14 -5.76,-2.14v0zM66.65,281.11167v-5.47l4.38,-0.94v-20.96l-4.85,-0.94v-5.5h13.35l0.4,4.94c0.79333,-1.75333 1.81667,-3.12 3.07,-4.1c1.24667,-0.98 2.69333,-1.47 4.34,-1.47v0c0.48,0 0.98667,0.03667 1.52,0.11c0.52667,0.07333 0.96667,0.16333 1.32,0.27v0l-0.96,8.31l-3.75,-0.09c-1.33333,0 -2.44,0.26 -3.32,0.78c-0.87333,0.52 -1.54,1.26 -2,2.22v0v16.43l4.38,0.94v5.47zM92.62,281.11167v-5.47l4.41,-0.94v-20.96l-4.88,-0.94v-5.5h14v27.4l4.38,0.94v5.47zM106.15,232.36167v6.84h-9.12v-6.84zM141.03,250.52167l0.09,8.4h-6.12l-0.97,-4.22c-0.62667,-0.5 -1.41333,-0.91667 -2.36,-1.25c-0.94667,-0.33333 -1.99333,-0.5 -3.14,-0.5v0c-1.60667,0 -2.87667,0.36 -3.81,1.08c-0.94,0.72 -1.41,1.62333 -1.41,2.71v0c0,1.02 0.44667,1.86667 1.34,2.54c0.9,0.68 2.69333,1.28 5.38,1.8v0c4.18667,0.83333 7.29,2.05667 9.31,3.67c2.02,1.61333 3.03,3.83667 3.03,6.67v0c0,3.04667 -1.30667,5.53333 -3.92,7.46c-2.61333,1.92667 -6.05667,2.89 -10.33,2.89v0c-2.6,0 -4.99,-0.38 -7.17,-1.14c-2.18,-0.76 -4.11333,-1.85 -5.8,-3.27v0l-0.09,-7.59h6.37l1.25,4.4c0.54667,0.46 1.28667,0.8 2.22,1.02c0.94,0.22 1.92,0.33 2.94,0.33v0c1.85333,0 3.26333,-0.33333 4.23,-1c0.97333,-0.66667 1.46,-1.57333 1.46,-2.72v0c0,-1 -0.49,-1.86667 -1.47,-2.6c-0.98,-0.72667 -2.78333,-1.37 -5.41,-1.93v0c-3.98,-0.81333 -6.98333,-2.01667 -9.01,-3.61c-2.03333,-1.59333 -3.05,-3.76667 -3.05,-6.52v0c0,-2.83333 1.16667,-5.27667 3.5,-7.33c2.33333,-2.04667 5.65667,-3.07 9.97,-3.07v0c2.62667,0 5.11,0.35333 7.45,1.06c2.34667,0.70667 4.18667,1.61333 5.52,2.72zM150.28,253.74167l-4.88,-0.94v-5.5h13.35l0.37,4.47c1.08667,-1.62667 2.44667,-2.88333 4.08,-3.77c1.63333,-0.88667 3.52333,-1.33 5.67,-1.33v0c2.16667,0 4.02,0.48 5.56,1.44c1.54667,0.96 2.71333,2.40667 3.5,4.34v0c1.04667,-1.80667 2.40333,-3.22333 4.07,-4.25c1.66667,-1.02 3.62333,-1.53 5.87,-1.53v0c3.33333,0 5.96333,1.15333 7.89,3.46c1.92667,2.3 2.89,5.80333 2.89,10.51v0v14.06l4.41,0.94v5.47h-17.47v-5.47l3.94,-0.94v-14.09c0,-2.56 -0.41667,-4.34 -1.25,-5.34c-0.83333,-1 -2.07333,-1.5 -3.72,-1.5v0c-1.29333,0 -2.41333,0.28667 -3.36,0.86c-0.94667,0.57333 -1.70333,1.37 -2.27,2.39v0c0,0.39333 0.01333,0.73 0.04,1.01c0.02,0.28 0.03,0.56667 0.03,0.86v0v15.81l3.68,0.94v5.47h-16.46v-5.47l3.68,-0.94v-14.09c0,-2.5 -0.41667,-4.26667 -1.25,-5.3c-0.83333,-1.02667 -2.08333,-1.54 -3.75,-1.54v0c-1.22667,0 -2.30333,0.23333 -3.23,0.7c-0.92667,0.46667 -1.69333,1.12667 -2.3,1.98v0v18.25l3.94,0.94v5.47h-17.44v-5.47l4.41,-0.94zM238.06,281.11167h-10.53c-0.25333,-0.56 -0.47333,-1.13667 -0.66,-1.73c-0.18667,-0.59333 -0.33333,-1.19333 -0.44,-1.8v0c-1.08,1.24667 -2.39667,2.25667 -3.95,3.03c-1.55333,0.77333 -3.33,1.16 -5.33,1.16v0c-3.31333,0 -5.94333,-0.90333 -7.89,-2.71c-1.94667,-1.8 -2.92,-4.25333 -2.92,-7.36v0c0,-3.16667 1.27,-5.61333 3.81,-7.34c2.54667,-1.72667 6.27667,-2.59 11.19,-2.59v0h4.66v-3.32c0,-1.62 -0.47,-2.88 -1.41,-3.78c-0.94,-0.89333 -2.32667,-1.34 -4.16,-1.34v0c-1.04,0 -1.96667,0.12 -2.78,0.36c-0.81333,0.24 -1.47,0.52667 -1.97,0.86v0l-0.59,3.62h-6.87l0.03,-7.5c1.66667,-1.12 3.57667,-2.06667 5.73,-2.84c2.16,-0.77333 4.51,-1.16 7.05,-1.16v0c4.18667,0 7.58667,1.02667 10.2,3.08c2.61333,2.05333 3.92,4.97667 3.92,8.77v0v13.97c0,0.52 0.00667,1.00667 0.02,1.46c0.00667,0.46 0.04333,0.9 0.11,1.32v0l2.78,0.37zM219.62,275.02167v0c1.37333,0 2.62333,-0.29667 3.75,-0.89c1.12667,-0.59333 2.00333,-1.34 2.63,-2.24v0v-5.15h-4.66c-1.94,0 -3.41,0.45 -4.41,1.35c-1,0.90667 -1.5,1.99667 -1.5,3.27v0c0,1.14667 0.37,2.04333 1.11,2.69c0.74,0.64667 1.76667,0.97 3.08,0.97z"></path></g></g></g>
</svg>
