<svg xmlns="http://www.w3.org/2000/svg" x="0px" y="0px" width="100" height="100" viewBox="0,0,256,256">
<g transform="translate(25.6,25.6) scale(0.8,0.8)"><g fill="#00acc1" fill-rule="nonzero" stroke="none" stroke-width="1" stroke-linecap="butt" stroke-linejoin="miter" stroke-miterlimit="10" stroke-dasharray="" stroke-dashoffset="0" font-family="none" font-weight="none" font-size="none" text-anchor="none" style="mix-blend-mode: normal"><g transform="translate(0,-25.60267) scale(5.33333,5.33333)"><path d="M24,9.604c-6.4,0 -10.4,3.199 -12,9.597c2.4,-3.199 5.2,-4.398 8.4,-3.599c1.826,0.456 3.131,1.781 4.576,3.247c2.352,2.387 5.075,5.151 11.024,5.151c6.4,0 10.4,-3.199 12,-9.598c-2.4,3.199 -5.2,4.399 -8.4,3.6c-1.825,-0.456 -3.13,-1.781 -4.575,-3.247c-2.353,-2.388 -5.077,-5.151 -11.025,-5.151zM12,24c-6.4,0 -10.4,3.199 -12,9.598c2.4,-3.199 5.2,-4.399 8.4,-3.599c1.825,0.457 3.13,1.781 4.575,3.246c2.353,2.388 5.077,5.152 11.025,5.152c6.4,0 10.4,-3.199 12,-9.598c-2.4,3.199 -5.2,4.399 -8.4,3.599c-1.826,-0.456 -3.131,-1.781 -4.576,-3.246c-2.352,-2.388 -5.075,-5.152 -11.024,-5.152z"></path></g></g><g fill="#222222" fill-rule="nonzero" stroke="none" stroke-width="1" stroke-linecap="butt" stroke-linejoin="miter" stroke-miterlimit="10" stroke-dasharray="" stroke-dashoffset="0" font-family="none" font-weight="none" font-size="none" text-anchor="none" style="mix-blend-mode: normal"><g><path d="M-11.26333,224.98167h30.42v9.09h-5.25l-0.28,-3.82h-6.28v24.05l3.65,0.7v4.1h-14.15v-4.1l3.65,-0.7v-24.05h-6.25l-0.29,3.82h-5.22zM43.64667,259.10167h-7.9c-0.18667,-0.42 -0.35,-0.85333 -0.49,-1.3c-0.14,-0.44667 -0.25,-0.89667 -0.33,-1.35v0c-0.81333,0.94 -1.8,1.7 -2.96,2.28c-1.16667,0.57333 -2.5,0.86 -4,0.86v0c-2.48,0 -4.45333,-0.67667 -5.92,-2.03c-1.46,-1.34667 -2.19,-3.18333 -2.19,-5.51v0c0,-2.38 0.95333,-4.21667 2.86,-5.51c1.90667,-1.3 4.70333,-1.95 8.39,-1.95v0h3.49v-2.48c0,-1.22 -0.35,-2.16667 -1.05,-2.84c-0.7,-0.67333 -1.74,-1.01 -3.12,-1.01v0c-0.78,0 -1.47333,0.09 -2.08,0.27c-0.61333,0.18 -1.10667,0.39667 -1.48,0.65v0l-0.44,2.72h-5.16l0.02,-5.63c1.25333,-0.84 2.68667,-1.55 4.3,-2.13c1.62,-0.58 3.38333,-0.87 5.29,-0.87v0c3.14,0 5.69,0.77 7.65,2.31c1.96,1.54 2.94,3.73 2.94,6.57v0v10.48c0,0.39333 0.00333,0.76 0.01,1.1c0.01333,0.34667 0.04333,0.67667 0.09,0.99v0l2.08,0.28zM29.81667,254.53167v0c1.03333,0 1.97333,-0.22333 2.82,-0.67c0.84,-0.44667 1.49333,-1.00333 1.96,-1.67v0v-3.87h-3.49c-1.45333,0 -2.55333,0.34 -3.3,1.02c-0.75333,0.68 -1.13,1.49667 -1.13,2.45v0c0,0.86 0.27667,1.53 0.83,2.01c0.56,0.48667 1.33,0.73 2.31,0.73zM45.75667,259.10167v-4.1l3.31,-0.7v-15.73l-3.66,-0.7v-4.13h10.5v20.56l3.28,0.7v4.1zM55.90667,222.54167v5.13h-6.84v-5.13zM64.36667,227.37167l-3.66,-0.71v-4.12h10.5v31.76l3.31,0.7v4.1h-13.45v-4.1l3.3,-0.7zM112.88667,233.74167v4.13l-2.56,0.32l-5.3,20.91h-5.71l-4.72,-15.09h-0.14l-4.71,15.09h-5.69l-5.32,-20.91l-2.56,-0.32v-4.13h11.49v4.13l-2.7,0.51l2.39,11.6h0.14l4.74,-16.24h4.59l4.78,16.29h0.14l2.37,-11.63l-2.72,-0.53v-4.13zM115.01667,259.10167v-4.1l3.3,-0.7v-15.73l-3.65,-0.7v-4.13h10.5v20.56l3.28,0.7v4.1zM125.16667,222.54167v5.13h-6.85v-5.13zM130.31667,259.10167v-4.1l3.28,-0.7v-15.73l-3.63,-0.7v-4.13h10.01l0.3,3.63c0.84667,-1.29333 1.88667,-2.3 3.12,-3.02c1.23333,-0.72 2.61667,-1.08 4.15,-1.08v0c2.56,0 4.56,0.80667 6,2.42c1.44,1.60667 2.16,4.13 2.16,7.57v0v11.04l3.28,0.7v4.1h-13.08v-4.1l2.93,-0.7v-11.02c0,-1.7 -0.34333,-2.90667 -1.03,-3.62c-0.68667,-0.71333 -1.72667,-1.07 -3.12,-1.07v0c-0.90667,0 -1.72,0.18333 -2.44,0.55c-0.71333,0.36667 -1.31333,0.88667 -1.8,1.56v0v13.6l2.76,0.7v4.1zM177.94667,259.10167l-0.52,-3.09c-0.79333,1.16667 -1.73333,2.05667 -2.82,2.67c-1.08667,0.60667 -2.32667,0.91 -3.72,0.91v0c-3.12,0 -5.54333,-1.14 -7.27,-3.42c-1.72667,-2.28 -2.59,-5.29667 -2.59,-9.05v0v-0.49c0,-4 0.86667,-7.22667 2.6,-9.68c1.73333,-2.45333 4.17,-3.68 7.31,-3.68v0c1.26667,0 2.40667,0.27667 3.42,0.83c1.02,0.56 1.91,1.34667 2.67,2.36v0v-9.09l-3.65,-0.71v-4.12h3.65h6.85v31.76l3.28,0.7v4.1zM167.86667,246.63167v0.49c0,2.22 0.37,3.96667 1.11,5.24c0.74667,1.27333 1.96333,1.91 3.65,1.91v0c1,0 1.86667,-0.20333 2.6,-0.61c0.73333,-0.40667 1.33333,-0.99333 1.8,-1.76v0v-10.75c-0.46667,-0.81333 -1.06333,-1.44333 -1.79,-1.89c-0.72667,-0.44667 -1.58,-0.67 -2.56,-0.67v0c-1.67333,0 -2.89333,0.74333 -3.66,2.23c-0.76667,1.48667 -1.15,3.42333 -1.15,5.81zM217.13667,229.73167v6.75h-5.09l-0.7,-4.54c-0.67333,-0.67333 -1.52333,-1.20667 -2.55,-1.6c-1.02,-0.38667 -2.22667,-0.58 -3.62,-0.58v0c-2.96667,0 -5.25,1.07667 -6.85,3.23c-1.6,2.16 -2.4,4.97333 -2.4,8.44v0v1.19c0,3.47333 0.79667,6.29333 2.39,8.46c1.59333,2.17333 3.84333,3.26 6.75,3.26v0c1.34,0 2.57,-0.19333 3.69,-0.58c1.11333,-0.39333 1.97667,-0.92667 2.59,-1.6v0l0.7,-4.54h5.09v6.75c-1.38,1.59333 -3.13667,2.86 -5.27,3.8c-2.12667,0.94667 -4.51333,1.42 -7.16,1.42v0c-4.57333,0 -8.32333,-1.58667 -11.25,-4.76c-2.92,-3.16667 -4.38,-7.23667 -4.38,-12.21v0v-1.14c0,-4.95333 1.45333,-9.02667 4.36,-12.22c2.90667,-3.18667 6.66333,-4.78 11.27,-4.78v0c2.64667,0 5.03,0.48 7.15,1.44c2.12667,0.96667 3.88667,2.23667 5.28,3.81zM246.19667,228.89167v6.98h-5.13l-0.89,-4.68c-0.6,-0.38 -1.47,-0.71 -2.61,-0.99c-1.14,-0.28 -2.35,-0.42 -3.63,-0.42v0c-1.87333,0 -3.32333,0.39333 -4.35,1.18c-1.02,0.79333 -1.53,1.81333 -1.53,3.06v0c0,1.16 0.53333,2.11 1.6,2.85c1.07333,0.74 2.92333,1.52667 5.55,2.36v0c3.76,1.04667 6.61333,2.42667 8.56,4.14c1.94667,1.72 2.92,3.98 2.92,6.78v0c0,2.92 -1.15667,5.22333 -3.47,6.91c-2.31333,1.68667 -5.36,2.53 -9.14,2.53v0c-2.7,0 -5.14,-0.43 -7.32,-1.29c-2.18,-0.86 -3.99667,-2.04667 -5.45,-3.56v0v-7.12h5.29l0.73,4.85c0.68667,0.56 1.62,1.02333 2.8,1.39c1.18,0.36667 2.49667,0.55 3.95,0.55v0c1.87333,0 3.3,-0.38333 4.28,-1.15c0.97333,-0.76 1.46,-1.78333 1.46,-3.07v0c0,-1.30667 -0.46333,-2.36 -1.39,-3.16c-0.93333,-0.8 -2.56333,-1.55 -4.89,-2.25v0c-4.04667,-1.17333 -7.11,-2.56333 -9.19,-4.17c-2.07333,-1.61333 -3.11,-3.81667 -3.11,-6.61v0c0,-2.76667 1.17,-5.03 3.51,-6.79c2.34667,-1.75333 5.29333,-2.65333 8.84,-2.7v0c2.62667,0 5.01667,0.39667 7.17,1.19c2.16,0.8 3.97333,1.86333 5.44,3.19zM275.30667,228.89167v6.98h-5.13l-0.9,-4.68c-0.59333,-0.38 -1.46,-0.71 -2.6,-0.99c-1.14,-0.28 -2.35,-0.42 -3.63,-0.42v0c-1.87333,0 -3.32333,0.39333 -4.35,1.18c-1.02,0.79333 -1.53,1.81333 -1.53,3.06v0c0,1.16 0.53333,2.11 1.6,2.85c1.07333,0.74 2.92333,1.52667 5.55,2.36v0c3.76,1.04667 6.61333,2.42667 8.56,4.14c1.94667,1.72 2.92,3.98 2.92,6.78v0c0,2.92 -1.15667,5.22333 -3.47,6.91c-2.31333,1.68667 -5.36,2.53 -9.14,2.53v0c-2.7,0 -5.14,-0.43 -7.32,-1.29c-2.18,-0.86 -3.99667,-2.04667 -5.45,-3.56v0v-7.12h5.29l0.73,4.85c0.68667,0.56 1.62,1.02333 2.8,1.39c1.18,0.36667 2.49667,0.55 3.95,0.55v0c1.87333,0 3.3,-0.38333 4.28,-1.15c0.97333,-0.76 1.46,-1.78333 1.46,-3.07v0c0,-1.30667 -0.46333,-2.36 -1.39,-3.16c-0.93333,-0.8 -2.56333,-1.55 -4.89,-2.25v0c-4.04667,-1.17333 -7.11,-2.56333 -9.19,-4.17c-2.07333,-1.61333 -3.11,-3.81667 -3.11,-6.61v0c0,-2.76667 1.17,-5.03 3.51,-6.79c2.34667,-1.75333 5.29333,-2.65333 8.84,-2.7v0c2.62667,0 5.01667,0.39667 7.17,1.19c2.15333,0.8 3.96667,1.86333 5.44,3.19z"></path></g></g></g>
</svg>
